<svg xmlns="http://www.w3.org/2000/svg" viewBox="0 0 1600 900" role="img" aria-labelledby="title desc">
  <title id="title">Comau NS16 Retrofit</title>
  <desc id="desc">Abstract robotic arm over a technical workshop grid.</desc>
  <defs>
    <linearGradient id="bg" x1="0" y1="0" x2="1" y2="1">
      <stop offset="0%" stop-color="#13221f" />
      <stop offset="100%" stop-color="#28423d" />
    </linearGradient>
    <linearGradient id="metal" x1="0" y1="0" x2="1" y2="0">
      <stop offset="0%" stop-color="#f6c78c" />
      <stop offset="100%" stop-color="#d4622f" />
    </linearGradient>
  </defs>
  <rect width="1600" height="900" fill="url(#bg)" />
  <g stroke="rgba(255,255,255,0.08)">
    <path d="M0 640h1600" />
    <path d="M0 500h1600" />
    <path d="M250 0v900" />
    <path d="M520 0v900" />
    <path d="M1040 0v900" />
  </g>
  <g transform="translate(260 170)">
    <rect x="0" y="420" width="620" height="62" rx="18" fill="#0f1716" />
    <circle cx="165" cy="420" r="52" fill="#f0e9d9" />
    <circle cx="165" cy="420" r="26" fill="#0f1716" />
    <path d="M200 380 390 245" fill="none" stroke="url(#metal)" stroke-width="38" stroke-linecap="round" />
    <circle cx="390" cy="245" r="44" fill="#f0e9d9" />
    <circle cx="390" cy="245" r="18" fill="#0f1716" />
    <path d="M426 225 585 120" fill="none" stroke="url(#metal)" stroke-width="34" stroke-linecap="round" />
    <circle cx="585" cy="120" r="34" fill="#f0e9d9" />
    <path d="M610 120 765 182" fill="none" stroke="#f6c78c" stroke-width="22" stroke-linecap="round" />
    <path d="M758 170 862 128" fill="none" stroke="#f6c78c" stroke-width="18" stroke-linecap="round" />
  </g>
  <text x="110" y="140" fill="#f6c78c" font-family="Avenir Next, Helvetica Neue, sans-serif" font-size="42" letter-spacing="8">COMAU NS16 RETROFIT</text>
</svg>