<svg xmlns="http://www.w3.org/2000/svg" viewBox="0 0 1600 900" role="img" aria-labelledby="title desc">
  <title id="title">Repository Foundation</title>
  <desc id="desc">Abstract shelves and archive blocks representing repository structure.</desc>
  <defs>
    <linearGradient id="bg" x1="0" y1="0" x2="1" y2="1">
      <stop offset="0%" stop-color="#f5efe3" />
      <stop offset="100%" stop-color="#d8dcca" />
    </linearGradient>
  </defs>
  <rect width="1600" height="900" fill="url(#bg)" />
  <g fill="none" stroke="#19312d" stroke-width="8" opacity="0.2">
    <rect x="118" y="120" width="1360" height="620" rx="28" />
    <path d="M118 320h1360M118 520h1360M458 120v620M858 120v620M1178 120v620" />
  </g>
  <g>
    <rect x="180" y="180" width="220" height="90" rx="20" fill="#d4622f" />
    <rect x="470" y="180" width="300" height="90" rx="20" fill="#16312d" />
    <rect x="830" y="180" width="210" height="90" rx="20" fill="#8ba296" />
    <rect x="1100" y="180" width="280" height="90" rx="20" fill="#f6c78c" />
    <rect x="180" y="385" width="500" height="90" rx="20" fill="#16312d" />
    <rect x="735" y="385" width="220" height="90" rx="20" fill="#d4622f" />
    <rect x="1010" y="385" width="370" height="90" rx="20" fill="#2f5248" />
    <rect x="180" y="590" width="240" height="90" rx="20" fill="#8ba296" />
    <rect x="475" y="590" width="430" height="90" rx="20" fill="#f6c78c" />
    <rect x="965" y="590" width="415" height="90" rx="20" fill="#16312d" />
  </g>
  <text x="182" y="110" fill="#16312d" font-family="Avenir Next, Helvetica Neue, sans-serif" font-size="40" letter-spacing="8">REPOSITORY FOUNDATION</text>
</svg>